<svg width="35" height="34" viewBox="0 0 35 34" fill="none" xmlns="http://www.w3.org/2000/svg">
<path d="M32.0457 17.3327C32.0457 16.1095 31.9439 15.2169 31.7237 14.2912H17.4006V19.8122H25.8079C25.6385 21.1842 24.7232 23.2504 22.6891 24.6389L22.6606 24.8237L27.1893 28.245L27.503 28.2756C30.3845 25.6803 32.0457 21.8619 32.0457 17.3327" fill="#4285F4"/>
<path d="M17.3998 31.8793C21.5187 31.8793 24.9765 30.5568 27.5021 28.2757L22.6882 24.639C21.4 25.5151 19.6711 26.1267 17.3998 26.1267C13.3657 26.1267 9.94172 23.5316 8.72118 19.9445L8.54228 19.9593L3.83331 23.5133L3.77173 23.6803C6.28034 28.5401 11.4332 31.8793 17.3998 31.8793Z" fill="#34A853"/>
<path d="M8.72193 19.9446C8.39988 19.0189 8.21349 18.0271 8.21349 17.0023C8.21349 15.9773 8.39988 14.9856 8.70498 14.0599L8.69645 13.8628L3.92846 10.2517L3.77246 10.3241C2.73853 12.3408 2.14526 14.6054 2.14526 17.0023C2.14526 19.3991 2.73853 21.6636 3.77246 23.6803L8.72193 19.9446" fill="#FBBC05"/>
<path d="M17.3999 7.8777C20.2644 7.8777 22.1967 9.08438 23.2986 10.0928L27.6039 5.99332C24.9598 3.59648 21.5188 2.12531 17.3999 2.12531C11.4333 2.12531 6.28036 5.46434 3.77173 10.3241L8.70427 14.0599C9.94176 10.4729 13.3657 7.8777 17.3999 7.8777" fill="#EB4335"/>
</svg>
